<svg xmlns="http://www.w3.org/2000/svg" width="90.585" height="90.585" viewBox="0 0 90.585 90.585">
  <g id="alert" transform="translate(-849.988 -83.578)">
    <path id="Path_1423" data-name="Path 1423" d="M907.388,185.27A44.293,44.293,0,1,1,938.707,172.3,44,44,0,0,1,907.388,185.27Zm0-86.612a42.319,42.319,0,1,0,29.924,12.4A42.042,42.042,0,0,0,907.388,98.658Z" transform="translate(-12.107 -12.107)" fill="none" stroke="#9b4431" stroke-width="2"/>
    <path id="Path_1424" data-name="Path 1424" d="M1130.155,205.649l-1.175,36.615a2.957,2.957,0,0,1-5.909,0l-1.175-36.615a4.132,4.132,0,1,1,8.259,0Z" transform="translate(-230.746 -100.559)" fill="#9b4431"/>
    <circle id="Ellipse_8" data-name="Ellipse 8" cx="3.992" cy="3.992" r="3.992" transform="translate(891.288 148.932)" fill="#9b4431"/>
  </g>
</svg>
