<svg id="Group_59791" data-name="Group 59791" xmlns="http://www.w3.org/2000/svg" xmlns:xlink="http://www.w3.org/1999/xlink" width="295.297" height="229.959" viewBox="0 0 295.297 229.959">
  <defs>
    <clipPath id="clip-path">
      <path id="Path_88577" data-name="Path 88577" d="M637.994,179.558a37.512,37.512,0,0,0-26.264,2.645c-14.131,6.946-45.03,18.342-47.92-13.058-3.476-37.763-82.112-48.808-111.5-19.968-35.746,35.085-1.456,59.972-30.5,75.312S369.18,280.542,403.4,298.127c22.16,11.387,41.521,9.005,43.126,20.506,3.029,21.7,2.408,34.81,22.313,40.839,37.642,11.4,47.473-9.764,70.924-13.453s109.977,28.34,138.869-23.259c17.417-31.1-44.25-60.075-26.752-77.024C670.505,227.7,668.838,187.851,637.994,179.558Z" transform="translate(-386.471 -132.851)" fill="#9ca2b3"/>
    </clipPath>
  </defs>
  <g id="Group_59790" data-name="Group 59790" transform="translate(0)">
    <g id="Group_59789" data-name="Group 59789" transform="translate(0)" clip-path="url(#clip-path)">
      <g id="Group_59684" data-name="Group 59684">
        <g id="Group_59683" data-name="Group 59683">
          <path id="Path_88515" data-name="Path 88515" d="M637.994,179.558a37.512,37.512,0,0,0-26.264,2.645c-14.131,6.946-45.03,18.342-47.92-13.058-3.476-37.763-82.112-48.808-111.5-19.968-35.746,35.085-1.456,59.972-30.5,75.312S369.18,280.542,403.4,298.127c22.16,11.387,41.521,9.005,43.126,20.506,3.029,21.7,2.408,34.81,22.313,40.839,37.642,11.4,47.473-9.764,70.924-13.453s109.977,28.34,138.869-23.259c17.417-31.1-44.25-60.075-26.752-77.024C670.505,227.7,668.838,187.851,637.994,179.558Z" transform="translate(-386.471 -132.851)" fill="#f1ede1"/>
        </g>
      </g>
      <g id="Group_59691" data-name="Group 59691" transform="translate(83.098 136.838)">
        <g id="Group_59690" data-name="Group 59690">
          <path id="Path_88516" data-name="Path 88516" d="M1132.509,1209.647c-4.7,2.438-16.963,4.214-29.973,5.412-4.818.448-9.747.811-14.415,1.109-11.521.715-21.565.971-25,.828a5.376,5.376,0,0,1-.536-.063h-.011a10.867,10.867,0,0,1-1.734-.469c-7.7-2.683-26-14.68-31.341-19.092-4.944-4.083-16.3-17.579-16.3-17.579-.537-3.564,7.371-5.159,15.629,3,.524.515,7.642,4.178,12.379,6.6.1.039.191.089.288.14.384.19.746.382,1.082.553,1.5.764,2.571,1.294,2.8,1.416-.2-.158-.931-.692-1.994-1.454q-.367-.267-.771-.565c-.085-.063-.172-.137-.269-.2-3.475-2.543-8.933-6.564-11-8.325-3.026-2.577-12.96-14.229-11.048-15.368,5.108-3.011,11.514,3.733,17.918,9.242,2.225,1.91,12.851,7.178,16.6,9.7-2.39-2.106-7.364-6.591-8.922-8.691-2.074-2.811-5.614-10.005-4.246-10.548,2.5-.987,4.959.79,11.032,7.421,5.128,5.594,17.018,8.351,20.075,9.967,6.138,3.23,17.769-.3,36.6-1.966,8.052-.725,15.111.852,19.1,7.887,3.228,5.7,3.672,13.214,5.947,18.3C1134.849,1207.909,1134.121,1208.819,1132.509,1209.647Z" transform="translate(-1013.178 -1164.854)" fill="#ffcfbf"/>
          <path id="Path_88517" data-name="Path 88517" d="M1325.617,1205.549s-5.733-9.656-.64-8.412,15.466,15.059,26.525,14.628l-6.108,4.353Z" transform="translate(-1281.805 -1192.76)" fill="#ffcfbf"/>
          <g id="Group_59688" data-name="Group 59688" transform="translate(25.531 24.385)">
            <g id="Group_59685" data-name="Group 59685" transform="translate(19.628 4.099)">
              <path id="Path_88518" data-name="Path 88518" d="M1459.006,1436.249l-50.977,3.88c-2.352-5.1-12.774-31.978-14.089-33.16l-.012-.011a1.536,1.536,0,0,0-.137-.128,6.961,6.961,0,0,0-.845-.629,3.083,3.083,0,0,0-.718-.327,33.352,33.352,0,0,0-8.69-3.37l-.012-.011c-12.5-3.219-28.73-2.7-28.78-2.742-3.738-3.875,3.527-8.623,14.187-12.612l1.433-.952c6.189-2.32,10.395-3.473,16.117-5.1.781-.221,4.033-.292,4.757-.5h.012c.61-.173,1.21-.335,1.788-.494,3.5-.959,10.327.881,11.549.842,17.074-.536,17.075-2.421,19.507-.225v.011a7.58,7.58,0,0,1,1.042,1.087C1424.933,1382.474,1458.59,1435.5,1459.006,1436.249Z" transform="translate(-1353.752 -1379.674)" fill="#ffcfbf"/>
            </g>
            <path id="Path_88519" data-name="Path 88519" d="M1279.015,1379.267c-10.27,3.056-28.7,2.235-39.32.108-2.775-.555-5.685-.709-8.165-2.072a25.448,25.448,0,0,1-5.8-4.909q-7.9-8.182-15.708-16.447c-1.444-1.528-2.844-4.149-1.179-5.433a3.816,3.816,0,0,1,2.162-.564c4.77-.266,9.963-.416,13.836,2.381,2.566,1.853,4.187,4.775,6.7,6.7a11.494,11.494,0,0,0,10.833,1.622Z" transform="translate(-1207.772 -1349.675)" fill="#ffcfbf"/>
            <g id="Group_59686" data-name="Group 59686">
              <path id="Path_88520" data-name="Path 88520" d="M1269.991,1378.14a58.8,58.8,0,0,1-22.613,1.617c-3.884-.4-7.7-1.139-11.549-1.757a20.225,20.225,0,0,1-5.684-1.48,18.018,18.018,0,0,1-4.649-3.542c-2.877-2.839-5.631-5.814-8.425-8.735q-4.292-4.488-8.557-9c-.962-1.024-2.492-2.818-1.972-4.363.3-.895,1.233-1.127,2.074-1.2.961-.086,1.932-.112,2.9-.139,3.471-.1,7.208.066,10.274,1.882,3.338,1.977,5.058,5.743,8.327,7.808a11.987,11.987,0,0,0,10.419,1.1c.459-.166.127-.85-.33-.685a11.15,11.15,0,0,1-10.642-1.742c-2.807-2.251-4.524-5.6-7.769-7.343-3.19-1.715-6.931-1.88-10.474-1.766-1.418.046-3.41-.163-4.63.7a2.726,2.726,0,0,0-.7,3.345,13.157,13.157,0,0,0,3.178,4.21q2.263,2.39,4.534,4.774,4.541,4.767,9.112,9.505c2.644,2.741,5.315,5.6,9.1,6.668,1.881.53,3.833.739,5.75,1.092,2.006.369,4.015.717,6.035,1,8.794,1.225,17.85,1.336,26.434-1.19.464-.137.328-.885-.143-.747Z" transform="translate(-1205.724 -1348.76)" fill="#ef9f8a"/>
            </g>
            <g id="Group_59687" data-name="Group 59687" transform="translate(47.358 4.441)">
              <path id="Path_88521" data-name="Path 88521" d="M1599.172,1391.939c-.322-5.437-6.459-7.354-10.856-8.39a48.913,48.913,0,0,0-25.195.756c-.445.133-.2.813.244.68a48.214,48.214,0,0,1,23.045-1.108,30.651,30.651,0,0,1,7.322,2.173c2.374,1.135,4.554,3.165,4.719,5.945a.362.362,0,0,0,.72-.055Z" transform="translate(-1562.886 -1382.255)" fill="#ef9f8a"/>
            </g>
          </g>
          <g id="Group_59689" data-name="Group 59689" transform="translate(111.665 47.526)">
            <path id="Path_88522" data-name="Path 88522" d="M1855.355,1523.917a17.919,17.919,0,0,0,2.556,5q.468.641.993,1.237a.518.518,0,0,0,.3.2.484.484,0,0,0,.359-.075.477.477,0,0,0,.12-.657,17.508,17.508,0,0,1-1.651-2.2q-.365-.579-.685-1.185c-.012-.023-.082-.158-.036-.067-.027-.053-.054-.106-.081-.159q-.08-.159-.156-.321-.149-.314-.285-.633-.3-.712-.543-1.448a.476.476,0,0,0-.6-.285.481.481,0,0,0-.285.6Z" transform="translate(-1855.33 -1523.283)" fill="#f18e7b"/>
          </g>
        </g>
      </g>
      <g id="Group_59712" data-name="Group 59712" transform="translate(249.844 155.501)">
        <g id="Group_59693" data-name="Group 59693" transform="translate(0 13.374)">
          <g id="Group_59692" data-name="Group 59692">
            <path id="Path_88523" data-name="Path 88523" d="M2270.889,1465.841a59.025,59.025,0,0,0,19.14-44.709,55.745,55.745,0,0,0-2.082-14.013c-.174-.618.772-.936.947-.317a60,60,0,0,1-7.848,48.78,56.741,56.741,0,0,1-9.416,10.929c-.473.425-1.219-.239-.74-.669Z" transform="translate(-2270.735 -1406.466)" fill="#9ca2b3"/>
          </g>
        </g>
        <g id="Group_59695" data-name="Group 59695" transform="translate(15.062 49.071)">
          <g id="Group_59694" data-name="Group 59694">
            <path id="Path_88524" data-name="Path 88524" d="M2384.78,1679.047c1.257,0,2.518.01,3.771-.106,1.143-.106,2.91-.2,3.856-.933q.817-.2.375-1.211a2.713,2.713,0,0,0-1.431.087,11.136,11.136,0,0,0-1.985.892c-1.284.649-2.561,1.311-3.842,1.967-.566.29-1.118-.542-.547-.835,1.329-.68,8.4-5.4,9.255-2.012.848,3.341-7.756,3.154-9.39,3.148-.64,0-.706-1-.063-1Z" transform="translate(-2384.329 -1675.685)" fill="#9ca2b3"/>
          </g>
        </g>
        <g id="Group_59697" data-name="Group 59697" transform="translate(17.22 39.137)">
          <g id="Group_59696" data-name="Group 59696">
            <path id="Path_88525" data-name="Path 88525" d="M2400.943,1606.913c1.966-.446,3.922-.947,5.848-1.547,1.413-.44,4.289-1.214,4.87-2.8q.654-.6-.636-.741l-.721-.038a4.824,4.824,0,0,0-1.506.443,17.6,17.6,0,0,0-2.6,1.431,21.259,21.259,0,0,0-4.455,3.9c-.423.484-1.164-.184-.741-.669a21.887,21.887,0,0,1,6.326-5.049c1.431-.748,4.052-1.909,5.333-.207,1.086,1.444-2,3.231-2.975,3.7a39.622,39.622,0,0,1-8.424,2.516c-.622.141-.944-.8-.317-.947Z" transform="translate(-2400.604 -1600.763)" fill="#9ca2b3"/>
          </g>
        </g>
        <g id="Group_59699" data-name="Group 59699" transform="translate(19.133 28.607)">
          <g id="Group_59698" data-name="Group 59698">
            <path id="Path_88526" data-name="Path 88526" d="M2415.471,1528.731a24.945,24.945,0,0,0,5.911-1.743,23.764,23.764,0,0,0,2.685-1.391c.416-.25.825-.51,1.225-.786q.291-.195.571-.407,1.56-.987.141-1.51a1.568,1.568,0,0,0-1.538-.382,8.188,8.188,0,0,0-1.61.415,10.658,10.658,0,0,0-2.655,1.447,20.487,20.487,0,0,0-4.189,4.505c-.379.517-1.118-.155-.74-.669a17.57,17.57,0,0,1,6.319-5.829c1.37-.653,4.806-1.887,5.839-.128,1.271,2.165-2.255,3.894-3.657,4.663a25.99,25.99,0,0,1-8.239,2.812c-.634.106-.69-.891-.063-1Z" transform="translate(-2415.029 -1521.349)" fill="#9ca2b3"/>
          </g>
        </g>
        <g id="Group_59701" data-name="Group 59701" transform="translate(19.766 14.869)">
          <g id="Group_59700" data-name="Group 59700">
            <path id="Path_88527" data-name="Path 88527" d="M2419.942,1428.883a27.488,27.488,0,0,1,4.637-3.441c1.673-1.109,5.074-3.62,4.108-5.986q-.055-.829-.89-.643a3.26,3.26,0,0,0-1.069.182,4.3,4.3,0,0,0-1.553.936,7.634,7.634,0,0,0-1.813,3.146c-.716,2.061-1.064,4.2-2.245,6.071-.339.539-1.231.089-.888-.457,1.623-2.575,1.63-5.818,3.326-8.349,1.093-1.63,3.83-3.5,5.806-2.124,1.787,1.245-.37,4.62-1.371,5.721-2.091,2.3-5.134,3.4-7.308,5.612-.449.457-1.192-.21-.74-.669Z" transform="translate(-2419.802 -1417.74)" fill="#9ca2b3"/>
          </g>
        </g>
        <g id="Group_59703" data-name="Group 59703" transform="translate(16.177)">
          <g id="Group_59702" data-name="Group 59702">
            <path id="Path_88528" data-name="Path 88528" d="M2394.082,1320.213a13.946,13.946,0,0,0,2.263-6.022c.3-2.1.479-4.828-.711-6.713q-.319-.948-1.057-.259-.766.008-.693.655a6.462,6.462,0,0,0-.132,1.871,27.939,27.939,0,0,0,.057,3.013,28.587,28.587,0,0,0,1.347,6.754.5.5,0,0,1-.947.317,29.32,29.32,0,0,1-1.467-9.518c.023-1.381-.136-5.357,2.319-4.615,2.3.694,2.519,4.488,2.462,6.387a15.848,15.848,0,0,1-2.553,8.588c-.359.522-1.252.073-.888-.457Z" transform="translate(-2392.738 -1305.603)" fill="#9ca2b3"/>
          </g>
        </g>
        <g id="Group_59705" data-name="Group 59705" transform="translate(11.691 16.875)">
          <g id="Group_59704" data-name="Group 59704">
            <path id="Path_88529" data-name="Path 88529" d="M2365.98,1441.776a16.569,16.569,0,0,0-2.43-4.505c-.456-.622-.937-1.225-1.426-1.821-.211-.258-.606-.962-.917-1.088q-1.537.21-1.111,1.042a6.547,6.547,0,0,0,.277.674,7.325,7.325,0,0,0,1.652,2.52,8.654,8.654,0,0,0,2.167.977,7.859,7.859,0,0,1,3.148,2.671c.374.524-.462,1.069-.835.546a7.371,7.371,0,0,0-3.634-2.656,4.416,4.416,0,0,1-2.041-1.37c-.938-1.153-2.844-4.015-1.417-5.435,1.408-1.4,2.9.775,3.692,1.752a20.728,20.728,0,0,1,3.821,6.377.5.5,0,0,1-.947.317Z" transform="translate(-2358.902 -1432.873)" fill="#9ca2b3"/>
          </g>
        </g>
        <g id="Group_59707" data-name="Group 59707" transform="translate(12.214 30.212)">
          <g id="Group_59706" data-name="Group 59706">
            <path id="Path_88530" data-name="Path 88530" d="M2369.124,1540.326a27.665,27.665,0,0,0-1.919-3.074c-.472-.624-2.158-2.808-3.1-2.578-.6.147.781,2.905,1.085,3.278.88,1.074,2.437,1.342,3.72,1.7.615.173.415,1.151-.2.977-1.651-.465-3.581-.848-4.557-2.405-.591-.944-1.753-3.176-1.1-4.3.669-1.155,2.243.092,2.961.648a16.669,16.669,0,0,1,3.952,5.2c.316.557-.516,1.106-.835.547Z" transform="translate(-2362.853 -1533.454)" fill="#9ca2b3"/>
          </g>
        </g>
        <g id="Group_59709" data-name="Group 59709" transform="translate(11.084 38.739)">
          <g id="Group_59708" data-name="Group 59708">
            <path id="Path_88531" data-name="Path 88531" d="M2359.832,1606.091a18.147,18.147,0,0,1-4.253-4.47c-.639-.964-2.139-2.828-.526-3.644,1.547-.784,2.99.766,3.792,1.892a10.9,10.9,0,0,1,1.915,5.267c.065.641-.932.7-1,.063a9.923,9.923,0,0,0-1.094-3.723,9.779,9.779,0,0,0-.908-1.394,5.248,5.248,0,0,0-.726-.794c-.524-.44-1.58-.461-1.4.485.185.978,1.421,2.245,2.052,2.978a17.8,17.8,0,0,0,2.815,2.6c.513.385-.158,1.125-.669.74Z" transform="translate(-2354.33 -1597.764)" fill="#9ca2b3"/>
          </g>
        </g>
        <g id="Group_59711" data-name="Group 59711" transform="translate(9.783 45.187)">
          <g id="Group_59710" data-name="Group 59710">
            <path id="Path_88532" data-name="Path 88532" d="M2348.622,1654.6a26.166,26.166,0,0,1-3.46-4.97c-.428-.821-1.154-2.341-.1-3.029s2.227.56,2.748,1.384a15.917,15.917,0,0,1,1.658,5.371c.124.623-.821.946-.947.317-.216-1.078-.449-2.158-.76-3.214a8.662,8.662,0,0,0-.606-1.612c-.275-.521-.53-1.231-1.162-.842q-.616.094-.259.548.219.477.479.932c.257.467.535.923.823,1.372a26.4,26.4,0,0,0,2.253,3c.415.479-.249,1.227-.669.741Z" transform="translate(-2344.517 -1646.396)" fill="#9ca2b3"/>
          </g>
        </g>
      </g>
      <g id="Group_59733" data-name="Group 59733" transform="translate(222.013 143.732)">
        <g id="Group_59714" data-name="Group 59714" transform="translate(5.488 15.302)">
          <g id="Group_59713" data-name="Group 59713">
            <path id="Path_88533" data-name="Path 88533" d="M2105.663,1406.134c9.761-17.368,11.206-38.806,4.481-57.5a66.267,66.267,0,0,0-7.759-15.105c-.625-.911.837-1.811,1.462-.9,11.571,16.844,15.01,38.72,9.783,58.421a68.11,68.11,0,0,1-6.452,15.9c-.541.962-2.058.158-1.515-.807Z" transform="translate(-2102.233 -1332.246)" fill="#9b4431"/>
          </g>
        </g>
        <g id="Group_59716" data-name="Group 59716" transform="translate(18.091 53.313)">
          <g id="Group_59715" data-name="Group 59715">
            <path id="Path_88534" data-name="Path 88534" d="M2197.857,1625.861a41.185,41.185,0,0,0,4.562-1.723c.61-.289,3.825-1.806,3.8-2.578-.063-1.975-3.205,1.31-3.546,1.66q-1.768,1.815-3.53,3.635c-.768.791-2.019-.386-1.246-1.181,1.183-1.218,8.179-9.982,10.2-5.478.7,1.568-.97,2.984-2.07,3.8a26.868,26.868,0,0,1-7.668,3.5c-1.05.352-1.548-1.291-.5-1.642Z" transform="translate(-2197.277 -1618.92)" fill="#9b4431"/>
          </g>
        </g>
        <g id="Group_59718" data-name="Group 59718" transform="translate(17.777 40.526)">
          <g id="Group_59717" data-name="Group 59717">
            <path id="Path_88535" data-name="Path 88535" d="M2195.314,1533.369c1.846-1.133,3.66-2.314,5.426-3.568a23.069,23.069,0,0,0,2.938-2.345c.595-.59,1.931-1.863,1.823-2.753q.349-.651-.445-.368a1.281,1.281,0,0,0-.956.206,5.752,5.752,0,0,0-1.723,1.258,20.99,20.99,0,0,0-2.093,2.323,25.7,25.7,0,0,0-3.516,6.1c-.423,1.02-1.935.206-1.515-.807a25.78,25.78,0,0,1,5.877-8.8c1.345-1.284,3.841-3.042,5.713-1.588,1.8,1.4-.869,4.562-1.919,5.607-2.493,2.482-5.73,4.365-8.709,6.193a.859.859,0,0,1-.9-1.462Z" transform="translate(-2194.915 -1522.482)" fill="#9b4431"/>
          </g>
        </g>
        <g id="Group_59720" data-name="Group 59720" transform="translate(16.223 27.746)">
          <g id="Group_59719" data-name="Group 59719">
            <path id="Path_88536" data-name="Path 88536" d="M2183.73,1438.565a28.475,28.475,0,0,0,8.036-6.254c.52-.579,2.27-2.156,2.26-2.942l-.786-1.426a5.517,5.517,0,0,0-.97.377,9.168,9.168,0,0,0-1.411.783,11.308,11.308,0,0,0-2.376,2.208,21.831,21.831,0,0,0-3.569,7.346c-.332,1.047-2.01.677-1.676-.376,1.062-3.347,2.414-6.727,4.984-9.217,1.4-1.358,4.968-4.154,6.956-2.415,2.265,1.981-.633,5.1-1.955,6.608a30.782,30.782,0,0,1-8.594,6.77c-.968.521-1.877-.936-.9-1.462Z" transform="translate(-2183.195 -1426.096)" fill="#9b4431"/>
          </g>
        </g>
        <g id="Group_59722" data-name="Group 59722" transform="translate(13.228 12.957)">
          <g id="Group_59721" data-name="Group 59721">
            <path id="Path_88537" data-name="Path 88537" d="M2160.7,1330.436c1.259-2.567,3.251-4.553,4.848-6.893a12.014,12.014,0,0,0,1.594-3.135c.3-.954.83-3.217-.171-3.863-1.122-.725-2.714,1.008-3.242,1.9a8.539,8.539,0,0,0-.917,4.385c0,2.61.385,5.151-.223,7.727a.859.859,0,0,1-1.676-.376c.9-3.835-.628-7.932.885-11.668.829-2.047,3.295-4.569,5.768-3.811,2.423.743,1.679,4.96,1.039,6.7-1.376,3.742-4.654,6.3-6.39,9.845-.486.993-2,.184-1.515-.807Z" transform="translate(-2160.602 -1314.562)" fill="#9b4431"/>
          </g>
        </g>
        <g id="Group_59724" data-name="Group 59724">
          <g id="Group_59723" data-name="Group 59723">
            <path id="Path_88538" data-name="Path 88538" d="M2067.064,1233.778a16.654,16.654,0,0,0,.105-8.185c-.422-1.908-1.42-6.135-3.634-6.774q-.929-.785-.945,1.018l.143.609a10.029,10.029,0,0,0,.5,1.809,33.552,33.552,0,0,0,1.291,3.521,34.092,34.092,0,0,0,3.993,6.807c.659.886-.805,1.783-1.462.9a35.264,35.264,0,0,1-5.177-9.835c-.57-1.7-2.489-6.871,1.052-6.8,2.987.057,4.691,4.1,5.414,6.458a19.242,19.242,0,0,1,.4,10.851c-.3,1.061-1.975.689-1.675-.376Z" transform="translate(-2060.842 -1216.845)" fill="#9b4431"/>
          </g>
        </g>
        <g id="Group_59726" data-name="Group 59726" transform="translate(1.019 20.899)">
          <g id="Group_59725" data-name="Group 59725">
            <path id="Path_88539" data-name="Path 88539" d="M2079.411,1382.823a20.143,20.143,0,0,0-4.69-4.262c-.721-.494-1.463-.957-2.205-1.417-.229-.142-.773-.63-1.041-.63q-.419-.374-.509.426-.731.711.3,1.24a10.9,10.9,0,0,0,2.126,1.855c1.088.669,2.21.523,3.42.638a9.451,9.451,0,0,1,4.608,1.778c.889.63.093,2.153-.808,1.515-1.841-1.3-3.522-1.46-5.7-1.647a5.589,5.589,0,0,1-3.08-1.306c-1.428-1.1-4.219-3.406-3.014-5.541,1.258-2.23,3.955-.2,5.335.677a25.186,25.186,0,0,1,6.717,5.773c.673.875-.793,1.771-1.462.9Z" transform="translate(-2068.527 -1374.462)" fill="#9b4431"/>
          </g>
        </g>
        <g id="Group_59728" data-name="Group 59728" transform="translate(6.543 35.977)">
          <g id="Group_59727" data-name="Group 59727">
            <path id="Path_88540" data-name="Path 88540" d="M2119.593,1494.4a26.975,26.975,0,0,0-3.939-3.1c-.7-.42-3.281-1.944-4.112-1.3l.407-.765c-.024,1.345,1.771,3.061,2.82,3.641,1.352.748,3.075.5,4.586.423a.859.859,0,0,1,.067,1.716c-2.25.118-4.639.371-6.436-1.244-1-.9-3.164-3.027-2.743-4.579.463-1.706,2.943-.848,4.06-.447a20.676,20.676,0,0,1,6.471,4.405c.825.733-.355,1.981-1.182,1.246Z" transform="translate(-2110.189 -1488.172)" fill="#9b4431"/>
          </g>
        </g>
        <g id="Group_59730" data-name="Group 59730" transform="translate(8.588 45.61)">
          <g id="Group_59729" data-name="Group 59729">
            <path id="Path_88541" data-name="Path 88541" d="M2134.92,1569.559a22.619,22.619,0,0,1-6.761-3.535c-1.2-.922-3.578-2.532-2.057-4.207,3.21-3.534,8.5,3.331,9.633,5.792.458.99-1,1.9-1.462.9a12.2,12.2,0,0,0-2.263-3.421c-.466-.484-4.4-3.418-4.208-1.96.144,1.081,2.4,2.3,3.244,2.808a20.735,20.735,0,0,0,4.25,1.946c1.04.345.672,2.024-.376,1.676Z" transform="translate(-2125.61 -1560.826)" fill="#9b4431"/>
          </g>
        </g>
        <g id="Group_59732" data-name="Group 59732" transform="translate(9.528 53.739)">
          <g id="Group_59731" data-name="Group 59731">
            <path id="Path_88542" data-name="Path 88542" d="M2140.232,1630.832c-1.659-.981-9.563-5.433-7.033-8.172.962-1.042,2.611-.328,3.542.325,1.969,1.379,3.221,3.789,4.4,5.816.553.954-.905,1.86-1.462.9-.585-1.008-1.183-2.014-1.842-2.976a11.312,11.312,0,0,0-1.36-1.735c-.344-.336-1.211-1.5-1.288-.534-.071.9,1.561,1.867,2.237,2.4a31.512,31.512,0,0,0,3.617,2.456c.948.56.146,2.079-.807,1.515Z" transform="translate(-2132.703 -1622.132)" fill="#9b4431"/>
          </g>
        </g>
      </g>
      <g id="Group_59754" data-name="Group 59754" transform="translate(95.021 181.752)">
        <g id="Group_59735" data-name="Group 59735" transform="translate(8.417 10.091)">
          <g id="Group_59734" data-name="Group 59734">
            <path id="Path_88543" data-name="Path 88543" d="M1189.97,1621.683a45.657,45.657,0,0,1-21.818-30.648,43.108,43.108,0,0,1-.73-10.935c.03-.5-.737-.581-.768-.084a46.407,46.407,0,0,0,13.952,35.581,43.874,43.874,0,0,0,8.913,6.713c.427.243.883-.381.45-.628Z" transform="translate(-1166.575 -1579.684)" fill="#9ca2b3"/>
          </g>
        </g>
        <g id="Group_59737" data-name="Group 59737" transform="translate(9.362 37.919)">
          <g id="Group_59736" data-name="Group 59736">
            <path id="Path_88544" data-name="Path 88544" d="M1181.2,1790.9c-.949.21-1.9.422-2.868.54a6.252,6.252,0,0,1-3.068-.071q-.65-.014-.482-.854a2.1,2.1,0,0,1,1.1-.169,8.6,8.6,0,0,1,1.647.348c1.077.279,2.151.57,3.227.855.476.126.756-.594.276-.721-1.116-.3-7.234-2.7-7.327,0-.091,2.665,6.381,1.109,7.616.836.483-.107.369-.871-.116-.763Z" transform="translate(-1173.704 -1789.557)" fill="#9ca2b3"/>
          </g>
        </g>
        <g id="Group_59739" data-name="Group 59739" transform="translate(4.335 31.088)">
          <g id="Group_59738" data-name="Group 59738">
            <path id="Path_88545" data-name="Path 88545" d="M1145.595,1741.142c-1.559-.014-3.12-.071-4.674-.208-1.14-.1-3.441-.213-4.141-1.313q-.592-.342.359-.665l.539-.147a3.733,3.733,0,0,1,1.211.087,13.571,13.571,0,0,1,2.2.653,16.458,16.458,0,0,1,4.009,2.218c.4.3.849-.331.45-.628a16.933,16.933,0,0,0-5.612-2.776c-1.2-.33-3.377-.777-4.065.721-.584,1.27,2.044,2.113,2.857,2.308a30.651,30.651,0,0,0,6.781.517c.493,0,.581-.763.084-.768Z" transform="translate(-1135.789 -1738.035)" fill="#9ca2b3"/>
          </g>
        </g>
        <g id="Group_59741" data-name="Group 59741" transform="translate(0.903 23.46)">
          <g id="Group_59740" data-name="Group 59740">
            <path id="Path_88546" data-name="Path 88546" d="M1120.092,1684.546a19.3,19.3,0,0,1-4.755-.345,18.424,18.424,0,0,1-2.259-.61c-.356-.121-.708-.25-1.055-.393q-.253-.1-.5-.214-1.342-.49-.355-1.118a1.213,1.213,0,0,1,1.1-.542,6.316,6.316,0,0,1,1.285.049,8.253,8.253,0,0,1,2.245.657,15.854,15.854,0,0,1,3.907,2.717c.372.329.82-.3.45-.628a13.589,13.589,0,0,0-5.735-3.367c-1.143-.268-3.943-.636-4.434.863-.6,1.846,2.345,2.573,3.531,2.923a20.1,20.1,0,0,0,6.69.771c.5-.024.375-.787-.116-.764Z" transform="translate(-1109.907 -1680.508)" fill="#9ca2b3"/>
          </g>
        </g>
        <g id="Group_59743" data-name="Group 59743" transform="translate(0 12.824)">
          <g id="Group_59742" data-name="Group 59742">
            <path id="Path_88547" data-name="Path 88547" d="M1112.3,1607.484a21.3,21.3,0,0,0-4.071-1.838c-1.447-.563-4.431-1.9-4.089-3.849q-.095-.636.568-.632a2.519,2.519,0,0,1,.838-.038,3.324,3.324,0,0,1,1.328.452,5.9,5.9,0,0,1,1.888,2.079,21.645,21.645,0,0,0,2.695,4.219c.345.351.945-.135.6-.491-1.65-1.68-2.188-4.13-3.887-5.764-1.094-1.053-3.47-2.018-4.739-.651-1.146,1.235,1.04,3.432,1.977,4.1,1.96,1.4,4.44,1.727,6.447,3.041.414.271.867-.354.45-.628Z" transform="translate(-1103.098 -1600.298)" fill="#9ca2b3"/>
          </g>
        </g>
        <g id="Group_59745" data-name="Group 59745" transform="translate(4.847 0)">
          <g id="Group_59744" data-name="Group 59744">
            <path id="Path_88548" data-name="Path 88548" d="M1143.929,1514.581a10.79,10.79,0,0,1-2.7-4.18c-.571-1.538-1.156-3.57-.566-5.191q.085-.769.757-.37.58-.12.631.38a4.991,4.991,0,0,1,.407,1.392,21.652,21.652,0,0,1,.452,2.286,22.13,22.13,0,0,1,.092,5.326.386.386,0,0,0,.768.084,22.677,22.677,0,0,0-.456-7.435c-.244-1.04-.778-4.072-2.512-3.107-1.621.9-1.166,3.807-.811,5.232a12.261,12.261,0,0,0,3.342,6.072c.357.335.958-.151.6-.491Z" transform="translate(-1139.649 -1503.58)" fill="#9ca2b3"/>
          </g>
        </g>
        <g id="Group_59747" data-name="Group 59747" transform="translate(9.034 11.979)">
          <g id="Group_59746" data-name="Group 59746">
            <path id="Path_88549" data-name="Path 88549" d="M1172.213,1601.591a12.819,12.819,0,0,1,1.1-3.8c.242-.545.507-1.08.778-1.611.118-.23.3-.827.515-.973q1.2-.094,1.011.6a5.112,5.112,0,0,1-.1.554,5.673,5.673,0,0,1-.835,2.176,6.684,6.684,0,0,1-1.478,1.095,6.083,6.083,0,0,0-1.941,2.537c-.2.458.525.732.721.276a5.7,5.7,0,0,1,2.31-2.6,3.421,3.421,0,0,0,1.318-1.371c.52-1.026,1.489-3.5.178-4.341-1.295-.827-2.063,1.062-2.5,1.931a16.046,16.046,0,0,0-1.84,5.449.386.386,0,0,0,.768.084Z" transform="translate(-1171.228 -1593.922)" fill="#9ca2b3"/>
          </g>
        </g>
        <g id="Group_59749" data-name="Group 59749" transform="translate(11.351 22.064)">
          <g id="Group_59748" data-name="Group 59748">
            <path id="Path_88550" data-name="Path 88550" d="M1189.446,1676.066a21.385,21.385,0,0,1,.945-2.639c.255-.549,1.17-2.478,1.92-2.459.481.012-.113,2.324-.282,2.656a5.409,5.409,0,0,1-2.531,1.9c-.437.232-.125.939.315.7,1.171-.623,2.568-1.23,3.049-2.567.292-.811.8-2.689.127-3.429-.7-.763-1.68.438-2.132.977a12.9,12.9,0,0,0-2.132,4.582c-.148.473.572.751.721.276Z" transform="translate(-1188.705 -1669.985)" fill="#9ca2b3"/>
          </g>
        </g>
        <g id="Group_59751" data-name="Group 59751" transform="translate(14.249 28.409)">
          <g id="Group_59750" data-name="Group 59750">
            <path id="Path_88551" data-name="Path 88551" d="M1211.479,1724.8a14.044,14.044,0,0,0,2.48-4.078c.324-.834,1.152-2.489-.2-2.841-1.3-.338-2.134,1.07-2.556,2.053a8.431,8.431,0,0,0-.582,4.3c.057.495.82.376.764-.116a7.671,7.671,0,0,1,.215-2.994,7.518,7.518,0,0,1,.457-1.2,4.072,4.072,0,0,1,.418-.72c.324-.419,1.119-.608,1.14.136a6.722,6.722,0,0,1-1.062,2.588,13.776,13.776,0,0,1-1.7,2.428c-.325.376.3.824.628.45Z" transform="translate(-1210.559 -1717.835)" fill="#9ca2b3"/>
          </g>
        </g>
        <g id="Group_59753" data-name="Group 59753" transform="translate(17.38 33.018)">
          <g id="Group_59752" data-name="Group 59752">
            <path id="Path_88552" data-name="Path 88552" d="M1235.039,1759.29a20.222,20.222,0,0,0,1.8-4.326c.189-.691.488-1.959-.423-2.306s-1.591.79-1.85,1.5a12.315,12.315,0,0,0-.371,4.332c.008.491.776.58.768.084-.014-.851-.015-1.705.046-2.554a6.7,6.7,0,0,1,.193-1.318c.123-.439.2-1.017.74-.827q.481-.031.286.371-.087.4-.209.783c-.117.4-.252.786-.4,1.172a20.375,20.375,0,0,1-1.209,2.64c-.234.431.39.886.628.45Z" transform="translate(-1234.17 -1752.593)" fill="#9ca2b3"/>
          </g>
        </g>
      </g>
      <g id="Group_59775" data-name="Group 59775" transform="translate(72.408 176.883)">
        <g id="Group_59756" data-name="Group 59756" transform="translate(6.501 9.002)">
          <g id="Group_59755" data-name="Group 59755">
            <path id="Path_88553" data-name="Path 88553" d="M987.67,1578.224a41.271,41.271,0,0,1-2.637-33.831,39,39,0,0,1,4.565-8.887c.368-.536-.492-1.065-.86-.53a42.259,42.259,0,0,0-5.755,34.371,40.072,40.072,0,0,0,3.8,9.352c.318.566,1.211.093.891-.475Z" transform="translate(-981.582 -1534.753)" fill="#9b4431"/>
          </g>
        </g>
        <g id="Group_59758" data-name="Group 59758" transform="translate(0.729 31.366)">
          <g id="Group_59757" data-name="Group 59757">
            <path id="Path_88554" data-name="Path 88554" d="M944.172,1707.5a24.1,24.1,0,0,1-2.684-1.014c-.359-.17-2.25-1.062-2.236-1.517.037-1.162,1.885.771,2.086.977q1.04,1.068,2.077,2.139c.452.465,1.188-.227.733-.7-.7-.717-4.812-5.873-6-3.223-.414.923.571,1.756,1.218,2.237a15.809,15.809,0,0,0,4.512,2.062c.618.207.911-.759.295-.966Z" transform="translate(-938.049 -1703.413)" fill="#9b4431"/>
          </g>
        </g>
        <g id="Group_59760" data-name="Group 59760" transform="translate(0 23.843)">
          <g id="Group_59759" data-name="Group 59759">
            <path id="Path_88555" data-name="Path 88555" d="M939.693,1653.081c-1.086-.666-2.153-1.362-3.192-2.1a13.581,13.581,0,0,1-1.729-1.379c-.35-.347-1.136-1.1-1.072-1.62q-.206-.383.261-.216a.755.755,0,0,1,.563.121,3.381,3.381,0,0,1,1.014.74,12.337,12.337,0,0,1,1.231,1.367,15.127,15.127,0,0,1,2.069,3.592c.249.6,1.138.121.891-.475a15.173,15.173,0,0,0-3.458-5.178c-.791-.756-2.26-1.79-3.361-.934-1.061.824.511,2.684,1.129,3.3a27.582,27.582,0,0,0,5.124,3.644.505.505,0,0,0,.53-.86Z" transform="translate(-932.552 -1646.676)" fill="#9b4431"/>
          </g>
        </g>
        <g id="Group_59762" data-name="Group 59762" transform="translate(0.747 16.324)">
          <g id="Group_59761" data-name="Group 59761">
            <path id="Path_88556" data-name="Path 88556" d="M945.415,1597.3a16.756,16.756,0,0,1-4.728-3.679c-.306-.341-1.335-1.268-1.33-1.731l.462-.839a3.256,3.256,0,0,1,.571.222,5.372,5.372,0,0,1,.83.461,6.661,6.661,0,0,1,1.4,1.3,12.852,12.852,0,0,1,2.1,4.322c.2.616,1.182.4.986-.221a12.613,12.613,0,0,0-2.932-5.422c-.824-.8-2.923-2.444-4.092-1.421-1.332,1.165.373,3,1.15,3.888a18.109,18.109,0,0,0,5.056,3.983c.57.307,1.1-.551.53-.86Z" transform="translate(-938.186 -1589.968)" fill="#9b4431"/>
          </g>
        </g>
        <g id="Group_59764" data-name="Group 59764" transform="translate(4.975 7.623)">
          <g id="Group_59763" data-name="Group 59763">
            <path id="Path_88557" data-name="Path 88557" d="M975.1,1533.688a34.217,34.217,0,0,0-2.852-4.055,7.056,7.056,0,0,1-.938-1.844c-.176-.561-.488-1.893.1-2.273.66-.426,1.6.593,1.907,1.115a5.023,5.023,0,0,1,.54,2.58,19.31,19.31,0,0,0,.131,4.546.505.505,0,0,0,.986-.221c-.532-2.257.37-4.667-.521-6.864-.488-1.2-1.938-2.688-3.393-2.242-1.425.437-.988,2.918-.612,3.941.809,2.2,2.738,3.709,3.759,5.792.286.584,1.177.108.891-.475Z" transform="translate(-970.075 -1524.349)" fill="#9b4431"/>
          </g>
        </g>
        <g id="Group_59766" data-name="Group 59766" transform="translate(12.833)">
          <g id="Group_59765" data-name="Group 59765">
            <path id="Path_88558" data-name="Path 88558" d="M1030.68,1476.821a9.794,9.794,0,0,1-.062-4.815c.249-1.123.835-3.61,2.138-3.985q.546-.462.556.6l-.084.358a5.9,5.9,0,0,1-.292,1.064,19.737,19.737,0,0,1-.759,2.071,20.062,20.062,0,0,1-2.349,4c-.388.521.474,1.049.86.53a20.744,20.744,0,0,0,3.046-5.786c.335-1,1.464-4.043-.619-4-1.757.034-2.76,2.411-3.186,3.8a11.327,11.327,0,0,0-.235,6.384c.176.624,1.162.405.986-.221Z" transform="translate(-1029.338 -1466.859)" fill="#9b4431"/>
          </g>
        </g>
        <g id="Group_59768" data-name="Group 59768" transform="translate(9.421 12.296)">
          <g id="Group_59767" data-name="Group 59767">
            <path id="Path_88559" data-name="Path 88559" d="M1005.017,1564.509a11.846,11.846,0,0,1,2.76-2.507c.424-.291.86-.563,1.3-.834.135-.083.455-.37.612-.37q.246-.22.3.25.43.418-.177.73a6.411,6.411,0,0,1-1.251,1.092,4.252,4.252,0,0,1-2.012.376,5.561,5.561,0,0,0-2.711,1.046c-.523.371-.055,1.267.475.891a6.051,6.051,0,0,1,3.353-.969,3.288,3.288,0,0,0,1.812-.768c.84-.646,2.482-2,1.774-3.26-.74-1.312-2.327-.118-3.139.4a14.819,14.819,0,0,0-3.951,3.4c-.4.514.466,1.042.86.53Z" transform="translate(-1003.606 -1559.59)" fill="#9b4431"/>
          </g>
        </g>
        <g id="Group_59770" data-name="Group 59770" transform="translate(7.594 21.166)">
          <g id="Group_59769" data-name="Group 59769">
            <path id="Path_88560" data-name="Path 88560" d="M990.681,1630.153a15.879,15.879,0,0,1,2.317-1.825c.412-.247,1.931-1.144,2.42-.762l-.24-.45c.014.791-1.043,1.8-1.659,2.142a5.052,5.052,0,0,1-2.7.249.505.505,0,0,0-.04,1.009c1.324.069,2.729.218,3.787-.732.591-.531,1.861-1.781,1.614-2.694-.272-1-1.731-.5-2.388-.263a12.161,12.161,0,0,0-3.807,2.592c-.486.431.208,1.166.7.733Z" transform="translate(-989.821 -1626.49)" fill="#9b4431"/>
          </g>
        </g>
        <g id="Group_59772" data-name="Group 59772" transform="translate(6.72 26.834)">
          <g id="Group_59771" data-name="Group 59771">
            <path id="Path_88561" data-name="Path 88561" d="M983.818,1674.373a13.313,13.313,0,0,0,3.978-2.08c.7-.542,2.1-1.49,1.21-2.475-1.889-2.079-5,1.96-5.668,3.408-.269.582.587,1.12.86.53a7.185,7.185,0,0,1,1.331-2.013c.274-.285,2.59-2.011,2.476-1.153-.085.636-1.412,1.351-1.908,1.652a12.2,12.2,0,0,1-2.5,1.145c-.612.2-.4,1.191.221.986Z" transform="translate(-983.232 -1669.234)" fill="#9b4431"/>
          </g>
        </g>
        <g id="Group_59774" data-name="Group 59774" transform="translate(7.075 31.617)">
          <g id="Group_59773" data-name="Group 59773">
            <path id="Path_88562" data-name="Path 88562" d="M986.637,1710.422c.976-.577,5.626-3.2,4.138-4.808-.566-.613-1.536-.193-2.084.191a10.3,10.3,0,0,0-2.587,3.422c-.326.561.533,1.094.86.53.344-.593.7-1.185,1.084-1.751a6.623,6.623,0,0,1,.8-1.021c.2-.2.713-.884.758-.314.042.53-.918,1.1-1.316,1.415a18.505,18.505,0,0,1-2.128,1.445c-.558.33-.086,1.223.475.891Z" transform="translate(-985.912 -1705.303)" fill="#9b4431"/>
          </g>
        </g>
      </g>
      <g id="Group_59776" data-name="Group 59776" transform="translate(74.212 50.179)">
        <ellipse id="Ellipse_50" data-name="Ellipse 50" cx="43.255" cy="40.62" rx="43.255" ry="40.62" transform="translate(27.477)" fill="#fff"/>
        <ellipse id="Ellipse_51" data-name="Ellipse 51" cx="30.381" cy="24.908" rx="30.381" ry="24.908" transform="translate(83.941 29.837)" fill="#fff"/>
        <ellipse id="Ellipse_52" data-name="Ellipse 52" cx="30.381" cy="24.908" rx="30.381" ry="24.908" transform="translate(0 29.837)" fill="#fff"/>
      </g>
      <g id="Group_59787" data-name="Group 59787" transform="translate(113.842 61.654)">
        <g id="Group_59777" data-name="Group 59777">
          <path id="Path_88563" data-name="Path 88563" d="M1245.038,630.73c0-17.467,12.635-32.9,31.931-32.9a31.627,31.627,0,0,1,0,63.253C1259.636,661.084,1245.038,648.2,1245.038,630.73Z" transform="translate(-1245.038 -597.831)" fill="#9b4431"/>
        </g>
        <g id="Group_59782" data-name="Group 59782" transform="translate(13.458 8.851)">
          <g id="Group_59779" data-name="Group 59779" transform="translate(0 31.171)">
            <g id="Group_59778" data-name="Group 59778">
              <path id="Path_88564" data-name="Path 88564" d="M1382.642,909.078h-34.621a1.491,1.491,0,0,1-1.485-1.5v-6.415a1.491,1.491,0,0,1,1.485-1.5h0a1.491,1.491,0,0,1,1.485,1.5v3.421a1.491,1.491,0,0,0,1.485,1.5h28.679a1.491,1.491,0,0,0,1.485-1.5v-3.421a1.491,1.491,0,0,1,1.485-1.5h0a1.491,1.491,0,0,1,1.485,1.5v6.415A1.491,1.491,0,0,1,1382.642,909.078Z" transform="translate(-1346.536 -899.669)" fill="#fff"/>
            </g>
          </g>
          <g id="Group_59781" data-name="Group 59781" transform="translate(9.1)">
            <g id="Group_59780" data-name="Group 59780">
              <path id="Path_88565" data-name="Path 88565" d="M1429.518,684.013V665.836a1.246,1.246,0,0,0-1.241-1.251h-6.245a1.246,1.246,0,0,0-1.241,1.251v18.177a1.246,1.246,0,0,1-1.241,1.251h-3.142a1.252,1.252,0,0,0-.892,2.12l8.689,9.051a1.235,1.235,0,0,0,1.8-.021l8.305-9.051a1.252,1.252,0,0,0-.911-2.1h-2.643A1.246,1.246,0,0,1,1429.518,684.013Z" transform="translate(-1415.164 -664.585)" fill="#fff"/>
            </g>
          </g>
        </g>
        <g id="Group_59784" data-name="Group 59784" transform="translate(2.614 1.918)">
          <g id="Group_59783" data-name="Group 59783">
            <path id="Path_88566" data-name="Path 88566" d="M1265.951,624.834a22.24,22.24,0,0,1,10.681-11.43c.686-.344.084-1.379-.6-1.036a23.468,23.468,0,0,0-11.229,12.147c-.3.711.856,1.022,1.148.319Z" transform="translate(-1264.755 -612.299)" fill="#ce9589"/>
          </g>
        </g>
        <g id="Group_59786" data-name="Group 59786" transform="translate(63.05 35.824)">
          <g id="Group_59785" data-name="Group 59785">
            <path id="Path_88567" data-name="Path 88567" d="M1721.926,868.579a18.858,18.858,0,0,1-1.333,5.238c-.292.713.86,1.024,1.148.319a19.908,19.908,0,0,0,1.376-5.557c.079-.767-1.112-.762-1.191,0Z" transform="translate(-1720.546 -868.006)" fill="#ce9589"/>
          </g>
        </g>
      </g>
      <g id="Group_59788" data-name="Group 59788" transform="translate(16.915 26.051)">
        <path id="Path_88568" data-name="Path 88568" d="M1000.2,330.934s-6.381-3.625-10.34,0,3.5,9.077-6.809,8.332-12.237,5.722-8.432,7.6,31.469,1.526,33.04.2-.968-1.806-2.261-4.045,5.036.3,4.875-3.753-8.62-2.863-8.6-4.914S1001.761,331.65,1000.2,330.934Z" transform="translate(-911.979 -329.324)" fill="#ecd6d1"/>
        <path id="Path_88569" data-name="Path 88569" d="M968.93,349.344a.21.21,0,0,1-.106,0,.2.2,0,0,1-.138-.245c.46-1.506,4.911-4.571,9.266-3.752,2.454.461,4.421.185,5.262-.738a1.762,1.762,0,0,0,.289-1.849,5.762,5.762,0,0,1,.53-4.509.21.21,0,0,1,.28-.072.193.193,0,0,1,.07.271,5.466,5.466,0,0,0-.492,4.181,2.132,2.132,0,0,1-.373,2.239c-.953,1.047-3.012,1.363-5.65.868-4.069-.765-8.373,2.1-8.79,3.469A.206.206,0,0,1,968.93,349.344Z" transform="translate(-908.396 -336.98)" fill="#f8ffff"/>
        <path id="Path_88570" data-name="Path 88570" d="M977.293,458.258a.2.2,0,0,1-.035.005c-.269.021-6.625.5-9.441-.219a4.038,4.038,0,0,1-3.259-3.133.2.2,0,0,1,.177-.225.2.2,0,0,1,.229.168,3.659,3.659,0,0,0,2.964,2.806c2.75.705,9.24.212,9.3.208a.2.2,0,0,1,.217.182A.2.2,0,0,1,977.293,458.258Z" transform="translate(-904.82 -438.063)" fill="#f8ffff"/>
        <path id="Path_88571" data-name="Path 88571" d="M2126.5,649.507s-5.1-2.9-8.27,0,2.8,7.259-5.445,6.663-9.786,4.576-6.743,6.076,25.167,1.22,26.423.156-.774-1.444-1.809-3.235,4.027.238,3.9-3-6.894-2.29-6.877-3.93S2127.746,650.08,2126.5,649.507Z" transform="translate(-1893.693 -605.935)" fill="#ecd6d1"/>
        <path id="Path_88572" data-name="Path 88572" d="M2101.49,664.23a.166.166,0,0,1-.084,0,.155.155,0,0,1-.11-.2c.368-1.2,3.927-3.655,7.41-3,1.963.369,3.536.148,4.208-.59a1.408,1.408,0,0,0,.231-1.479,4.608,4.608,0,0,1,.424-3.606.168.168,0,0,1,.224-.058.154.154,0,0,1,.056.216,4.37,4.37,0,0,0-.394,3.344,1.7,1.7,0,0,1-.3,1.79c-.762.837-2.409,1.09-4.519.694-3.254-.612-6.7,1.683-7.03,2.775A.166.166,0,0,1,2101.49,664.23Z" transform="translate(-1890.828 -612.059)" fill="#f8ffff"/>
        <path id="Path_88573" data-name="Path 88573" d="M2108.179,751.332l-.028,0c-.215.017-5.3.4-7.55-.175a3.228,3.228,0,0,1-2.606-2.505.163.163,0,0,1,.141-.18.16.16,0,0,1,.183.134,2.925,2.925,0,0,0,2.37,2.244c2.2.564,7.389.17,7.441.166a.159.159,0,0,1,.174.145A.162.162,0,0,1,2108.179,751.332Z" transform="translate(-1887.969 -692.897)" fill="#f8ffff"/>
        <path id="Path_88574" data-name="Path 88574" d="M569.286,1063.307s-8.947-6.013-15.145-1.137,4.133,13.68-10.891,11.453-18.553,7.032-13.188,10.2,45.924,5.7,48.372,3.928-1.219-2.752-2.867-6.174,7.343.991,7.555-4.96-12.31-5.144-12.052-8.145S571.5,1064.527,569.286,1063.307Z" transform="translate(-525.891 -963.343)" fill="#ecd6d1"/>
        <path id="Path_88575" data-name="Path 88575" d="M524.292,1082.754a.309.309,0,0,1-.155-.013.286.286,0,0,1-.175-.374c.84-2.156,7.7-6.153,13.986-4.474,3.544.946,6.455.759,7.788-.5a2.588,2.588,0,0,0,.627-2.677,8.465,8.465,0,0,1,1.273-6.546.308.308,0,0,1,.419-.075.284.284,0,0,1,.073.4,8.028,8.028,0,0,0-1.182,6.07,3.131,3.131,0,0,1-.793,3.238c-1.511,1.428-4.562,1.665-8.372.648-5.875-1.569-12.5,2.159-13.257,4.113A.3.3,0,0,1,524.292,1082.754Z" transform="translate(-522.63 -970.092)" fill="#f8ffff"/>
        <path id="Path_88576" data-name="Path 88576" d="M532.326,1232.149a.3.3,0,0,1-.051,0c-.4,0-9.758.007-13.8-1.361-4.184-1.415-4.421-4.8-4.429-4.948a.3.3,0,0,1,.284-.31.294.294,0,0,1,.317.271c.008.133.238,3.153,4.032,4.436,3.95,1.336,13.51,1.33,13.606,1.329a.292.292,0,0,1,.3.291A.3.3,0,0,1,532.326,1232.149Z" transform="translate(-514.042 -1106.701)" fill="#f8ffff"/>
      </g>
    </g>
  </g>
</svg>
