<svg xmlns="http://www.w3.org/2000/svg" xmlns:xlink="http://www.w3.org/1999/xlink" width="500" zoomAndPan="magnify" viewBox="0 0 375 374.999991" height="500" preserveAspectRatio="xMidYMid meet" version="1.0"><defs><g/><clipPath id="49f2a056fc"><path d="M 10.929688 10.929688 L 364.070312 10.929688 L 364.070312 364.070312 L 10.929688 364.070312 Z M 10.929688 10.929688 " clip-rule="nonzero"/></clipPath><clipPath id="ce90872f61"><path d="M 187.5 10.929688 C 89.980469 10.929688 10.929688 89.980469 10.929688 187.5 C 10.929688 285.019531 89.980469 364.070312 187.5 364.070312 C 285.019531 364.070312 364.070312 285.019531 364.070312 187.5 C 364.070312 89.980469 285.019531 10.929688 187.5 10.929688 Z M 187.5 10.929688 " clip-rule="nonzero"/></clipPath><clipPath id="bb8aa99021"><path d="M 97.101562 41 L 187.851562 41 L 187.851562 135.75 L 97.101562 135.75 Z M 97.101562 41 " clip-rule="nonzero"/></clipPath></defs><g clip-path="url(#49f2a056fc)"><g clip-path="url(#ce90872f61)"><path fill="#339cb5" d="M 10.929688 10.929688 L 364.070312 10.929688 L 364.070312 364.070312 L 10.929688 364.070312 Z M 10.929688 10.929688 " fill-opacity="1" fill-rule="nonzero"/></g></g><g fill="#ffffff" fill-opacity="1"><g transform="translate(58.358741, 261.477057)"><g><path d="M 65.265625 -114.6875 C 83.296875 -114.6875 96.191406 -108.160156 103.953125 -95.109375 L 104.421875 -95.109375 L 104.421875 -111.890625 L 131 -111.890625 L 131 -9.09375 C 131 11.113281 125.753906 27.003906 115.265625 38.578125 C 104.773438 50.148438 88.960938 55.9375 67.828125 55.9375 C 44.828125 55.9375 26.335938 49.800781 12.359375 37.53125 L 29.140625 14.6875 C 40.796875 25.40625 53.613281 30.765625 67.59375 30.765625 C 80.644531 30.765625 89.8125 27.460938 95.09375 20.859375 C 100.382812 14.253906 103.03125 4.738281 103.03125 -7.6875 L 103.03125 -14.921875 L 102.5625 -14.921875 C 93.863281 -4.035156 81.664062 1.40625 65.96875 1.40625 C 49.800781 1.40625 36.472656 -3.992188 25.984375 -14.796875 C 15.492188 -25.597656 10.25 -39.3125 10.25 -55.9375 C 10.25 -73.03125 15.257812 -87.09375 25.28125 -98.125 C 35.3125 -109.164062 48.640625 -114.6875 65.265625 -114.6875 Z M 38.234375 -56.171875 C 38.234375 -46.847656 41.457031 -39.117188 47.90625 -32.984375 C 54.351562 -26.847656 62.082031 -23.78125 71.09375 -23.78125 C 81.195312 -23.78125 89.273438 -26.882812 95.328125 -33.09375 C 101.390625 -39.3125 104.421875 -47.160156 104.421875 -56.640625 C 104.421875 -66.898438 101.351562 -74.941406 95.21875 -80.765625 C 89.082031 -86.597656 81.039062 -89.515625 71.09375 -89.515625 C 61.457031 -89.515625 53.570312 -86.484375 47.4375 -80.421875 C 41.300781 -74.359375 38.234375 -66.273438 38.234375 -56.171875 Z M 38.234375 -56.171875 "/></g></g></g><g fill="#ffffff" fill-opacity="1"><g transform="translate(182.834208, 261.477057)"><g><path d="M 43.828125 -176.21875 L 43.828125 -96.265625 L 44.28125 -96.265625 C 47.238281 -102.171875 51.628906 -106.71875 57.453125 -109.90625 C 63.285156 -113.09375 69.851562 -114.6875 77.15625 -114.6875 C 90.050781 -114.6875 100.070312 -110.835938 107.21875 -103.140625 C 114.375 -95.453125 117.953125 -84.847656 117.953125 -71.328125 L 117.953125 0 L 89.96875 0 L 89.96875 -58.046875 C 89.96875 -79.023438 83.132812 -89.515625 69.46875 -89.515625 C 61.070312 -89.515625 54.695312 -86.910156 50.34375 -81.703125 C 46 -76.492188 43.828125 -69.691406 43.828125 -61.296875 L 43.828125 0 L 15.84375 0 L 15.84375 -176.21875 Z M 43.828125 -176.21875 "/></g></g></g><g clip-path="url(#bb8aa99021)"><path fill="#ffffff" d="M 182.355469 62.125 L 173.800781 62.125 C 175.355469 59.359375 174.300781 51.726562 172.886719 47.480469 C 168.242188 33.824219 149.945312 48.671875 146.777344 51.484375 C 145.410156 50.386719 142.03125 50.90625 140.40625 50.792969 C 139.535156 50.796875 138.730469 51.027344 137.992188 51.484375 C 134.851562 48.691406 116.53125 33.828125 111.890625 47.464844 C 110.472656 51.710938 109.410156 59.351562 110.972656 62.125 L 102.414062 62.125 C 102.082031 62.125 101.753906 62.160156 101.429688 62.222656 C 101.105469 62.289062 100.789062 62.382812 100.480469 62.511719 C 100.175781 62.636719 99.886719 62.792969 99.609375 62.976562 C 99.335938 63.164062 99.078125 63.371094 98.84375 63.605469 C 98.609375 63.839844 98.402344 64.09375 98.21875 64.371094 C 98.035156 64.644531 97.878906 64.9375 97.75 65.242188 C 97.625 65.550781 97.527344 65.863281 97.464844 66.1875 C 97.398438 66.515625 97.367188 66.84375 97.363281 67.171875 L 97.363281 84.964844 C 97.363281 85.191406 97.40625 85.402344 97.492188 85.609375 C 97.578125 85.816406 97.699219 86 97.859375 86.15625 C 98.015625 86.3125 98.199219 86.4375 98.402344 86.519531 C 98.609375 86.605469 98.824219 86.648438 99.046875 86.648438 L 102.347656 86.648438 L 102.347656 130.84375 C 102.347656 131.175781 102.378906 131.503906 102.445312 131.828125 C 102.507812 132.152344 102.605469 132.46875 102.730469 132.773438 C 102.859375 133.078125 103.015625 133.371094 103.199219 133.644531 C 103.382812 133.921875 103.589844 134.175781 103.824219 134.410156 C 104.058594 134.644531 104.316406 134.855469 104.589844 135.039062 C 104.867188 135.222656 105.15625 135.378906 105.464844 135.503906 C 105.769531 135.632812 106.085938 135.726562 106.410156 135.792969 C 106.734375 135.859375 107.0625 135.890625 107.394531 135.890625 C 116.359375 135.890625 177.371094 135.890625 177.371094 135.890625 C 177.703125 135.890625 178.03125 135.859375 178.355469 135.792969 C 178.683594 135.726562 178.996094 135.632812 179.304688 135.503906 C 179.609375 135.378906 179.902344 135.222656 180.175781 135.039062 C 180.453125 134.855469 180.707031 134.644531 180.941406 134.410156 C 181.175781 134.175781 181.382812 133.921875 181.570312 133.644531 C 181.753906 133.371094 181.910156 133.078125 182.035156 132.773438 C 182.164062 132.46875 182.257812 132.152344 182.324219 131.828125 C 182.386719 131.503906 182.421875 131.175781 182.421875 130.84375 L 182.421875 86.648438 L 185.71875 86.648438 C 185.941406 86.648438 186.15625 86.605469 186.363281 86.519531 C 186.570312 86.4375 186.75 86.3125 186.910156 86.15625 C 187.066406 86 187.1875 85.816406 187.273438 85.609375 C 187.359375 85.402344 187.402344 85.191406 187.402344 84.964844 L 187.402344 67.175781 C 187.402344 66.84375 187.367188 66.515625 187.304688 66.1875 C 187.238281 65.863281 187.144531 65.550781 187.015625 65.242188 C 186.890625 64.9375 186.734375 64.644531 186.550781 64.371094 C 186.363281 64.09375 186.15625 63.839844 185.921875 63.605469 C 185.6875 63.371094 185.433594 63.164062 185.15625 62.976562 C 184.882812 62.792969 184.589844 62.636719 184.285156 62.511719 C 183.976562 62.382812 183.664062 62.289062 183.339844 62.222656 C 183.011719 62.160156 182.683594 62.125 182.355469 62.125 Z M 151.210938 62.125 C 155.546875 58.136719 166.015625 55.820312 171.085938 55.101562 C 171.429688 57.976562 171.382812 61.539062 169.222656 62.125 Z M 149.527344 83.285156 C 149.402344 83.269531 135.363281 83.292969 135.238281 83.285156 L 135.238281 65.492188 C 135.238281 65.492188 148.164062 65.492188 149.527344 65.492188 Z M 163.925781 45.214844 C 168.429688 44.085938 169.929688 48.167969 170.5 51.792969 C 166.148438 52.425781 155.214844 54.457031 149.042969 59.449219 C 149.136719 57.679688 149.070312 55.917969 148.832031 54.164062 C 153.265625 50.171875 158.296875 47.191406 163.925781 45.214844 Z M 140.40625 54.15625 L 144.359375 54.15625 C 144.535156 54.15625 144.703125 54.191406 144.863281 54.257812 C 145.023438 54.324219 145.167969 54.417969 145.289062 54.542969 C 145.414062 54.667969 145.507812 54.808594 145.574219 54.96875 C 145.640625 55.132812 145.675781 55.300781 145.675781 55.472656 L 145.675781 62.125 L 139.089844 62.125 L 139.089844 55.472656 C 139.089844 55.300781 139.125 55.132812 139.191406 54.96875 C 139.257812 54.808594 139.355469 54.667969 139.476562 54.542969 C 139.601562 54.417969 139.742188 54.324219 139.902344 54.257812 C 140.066406 54.191406 140.234375 54.15625 140.40625 54.15625 Z M 115.121094 48.398438 C 115.207031 48.105469 115.316406 47.824219 115.457031 47.554688 C 115.59375 47.285156 115.757812 47.03125 115.949219 46.792969 C 116.136719 46.554688 116.347656 46.339844 116.582031 46.140625 C 116.8125 45.945312 117.0625 45.773438 117.328125 45.625 C 117.59375 45.476562 117.871094 45.355469 118.160156 45.261719 C 118.449219 45.171875 118.742188 45.105469 119.046875 45.070312 C 119.347656 45.035156 119.648438 45.03125 119.953125 45.054688 C 120.257812 45.078125 120.554688 45.132812 120.847656 45.214844 C 126.472656 47.191406 131.503906 50.171875 135.9375 54.160156 C 135.710938 55.917969 135.640625 57.679688 135.726562 59.445312 C 129.550781 54.453125 118.617188 52.425781 114.269531 51.792969 C 114.511719 50.679688 114.785156 49.539062 115.121094 48.398438 Z M 113.683594 55.101562 C 118.949219 55.847656 128.691406 58.011719 133.683594 62.125 L 115.546875 62.125 C 113.386719 61.539062 113.339844 57.976562 113.683594 55.101562 Z M 100.730469 67.175781 C 100.730469 66.949219 100.773438 66.734375 100.859375 66.53125 C 100.945312 66.324219 101.066406 66.140625 101.222656 65.984375 C 101.382812 65.828125 101.5625 65.707031 101.769531 65.621094 C 101.976562 65.535156 102.191406 65.492188 102.414062 65.492188 L 131.875 65.492188 L 131.875 83.285156 C 129.855469 83.28125 101.9375 83.285156 100.730469 83.285156 Z M 105.710938 130.84375 L 105.710938 86.648438 L 134.121094 86.648438 L 134.121094 132.523438 L 107.394531 132.523438 C 107.171875 132.523438 106.957031 132.480469 106.75 132.398438 C 106.542969 132.3125 106.363281 132.1875 106.203125 132.03125 C 106.046875 131.875 105.925781 131.691406 105.839844 131.484375 C 105.753906 131.28125 105.710938 131.066406 105.710938 130.84375 Z M 137.488281 132.523438 L 137.488281 86.648438 L 147.28125 86.648438 L 147.28125 132.523438 Z M 179.054688 130.84375 C 179.054688 131.066406 179.011719 131.28125 178.925781 131.484375 C 178.839844 131.691406 178.71875 131.875 178.5625 132.03125 C 178.40625 132.1875 178.222656 132.3125 178.015625 132.398438 C 177.808594 132.480469 177.597656 132.523438 177.371094 132.523438 L 150.644531 132.523438 L 150.644531 86.648438 L 179.054688 86.648438 Z M 184.035156 83.285156 C 182.964844 83.289062 154.773438 83.277344 152.890625 83.285156 L 152.890625 65.492188 L 182.355469 65.492188 C 182.578125 65.492188 182.792969 65.535156 182.996094 65.621094 C 183.203125 65.707031 183.386719 65.828125 183.542969 65.984375 C 183.699219 66.140625 183.820312 66.324219 183.90625 66.53125 C 183.992188 66.734375 184.035156 66.949219 184.035156 67.175781 Z M 184.035156 83.285156 " fill-opacity="1" fill-rule="nonzero"/></g></svg>