<svg xmlns="http://www.w3.org/2000/svg" width="98.077" height="98.077" viewBox="0 0 98.077 98.077">
  <g id="Group_60171" data-name="Group 60171" transform="translate(-818.412 -124.379)">
    <path id="Path_89075" data-name="Path 89075" d="M867.452,124.379a49.039,49.039,0,1,0,49.037,49.04A49.042,49.042,0,0,0,867.452,124.379Zm0,89.421a40.382,40.382,0,1,1,40.38-40.38A40.382,40.382,0,0,1,867.452,213.8Z" transform="translate(0)" fill="#7db477"/>
    <path id="Path_89076" data-name="Path 89076" d="M999.851,307.456l-32.88,32.88a4.108,4.108,0,0,1-5.809,0L949.724,328.9a4.607,4.607,0,0,1-.009-6.534,4.525,4.525,0,0,1,6.337.062l8.015,8.015,29.384-29.384a4.525,4.525,0,0,1,6.4,6.4Z" transform="translate(-107.319 -144.814)" fill="#7db477"/>
  </g>
</svg>
