<svg xmlns="http://www.w3.org/2000/svg" width="29" height="29" viewBox="0 0 29 29">
  <g id="CRM" transform="translate(-32 -150)">
    <g id="remix-icons_line_finance_shopping-bag-3-line" data-name="remix-icons/line/finance/shopping-bag-3-line" transform="translate(32 150)">
      <rect id="remix-icons_line_finance_shopping-bag-3-line_Frame_Background_" data-name="remix-icons/line/finance/shopping-bag-3-line [Frame Background]" width="29" height="29" fill="none"/>
    </g>
    <g id="calendar-svgrepo-com_2_" data-name="calendar-svgrepo-com (2)" transform="translate(35.483 153.491)">
      <path id="Path_70" data-name="Path 70" d="M13.959.809A.911.911,0,0,1,14.945,0a.911.911,0,0,1,.987.809V4.353a.911.911,0,0,1-.987.809.911.911,0,0,1-.987-.809V.809ZM11.307,17.756c-.058,0-.1-.245-.1-.547s.046-.547.1-.547h2.7c.058,0,.1.245.1.547s-.046.547-.1.547Zm-8.6-6.281c-.058,0-.1-.245-.1-.547s.046-.547.1-.547h2.7c.058,0,.1.245.1.547s-.046.547-.1.547Zm4.3,0c-.058,0-.1-.245-.1-.547s.046-.547.1-.547h2.7c.058,0,.1.245.1.547s-.046.547-.1.547Zm4.3,0c-.058,0-.1-.245-.1-.547s.046-.547.1-.547h2.7c.058,0,.1.245.1.547s-.046.547-.1.547Zm4.3,0c-.058,0-.1-.245-.1-.547s.046-.547.1-.547h2.7c.058,0,.1.245.1.547s-.046.547-.1.547Zm-12.9,3.14c-.058,0-.1-.245-.1-.547s.046-.547.1-.547h2.7c.058,0,.1.245.1.547s-.046.547-.1.547Zm4.3,0c-.058,0-.1-.245-.1-.547s.046-.547.1-.547h2.7c.058,0,.1.245.1.547s-.046.547-.1.547Zm4.3,0c-.058,0-.1-.245-.1-.547s.046-.547.1-.547h2.7c.058,0,.1.245.1.547s-.046.547-.1.547Zm4.3,0c-.058,0-.1-.245-.1-.547s.046-.547.1-.547h2.7c.058,0,.1.245.1.547s-.046.547-.1.547Zm-12.9,3.14c-.058,0-.1-.245-.1-.547s.046-.547.1-.547h2.7c.058,0,.1.245.1.547s-.046.547-.1.547Zm4.3,0c-.058,0-.1-.245-.1-.547s.046-.547.1-.547h2.7c.058,0,.1.245.1.547s-.046.547-.1.547ZM5.064.809A.911.911,0,0,1,6.051,0a.911.911,0,0,1,.987.809V4.353a.911.911,0,0,1-.987.809.911.911,0,0,1-.987-.809V.809ZM1.095,7.752H19.921V3.672a.505.505,0,0,0-.147-.354.5.5,0,0,0-.354-.147h-1.8a.547.547,0,0,1,0-1.095h1.8a1.6,1.6,0,0,1,1.6,1.6V19.423a1.6,1.6,0,0,1-1.6,1.6H1.6a1.6,1.6,0,0,1-1.6-1.6V3.672a1.6,1.6,0,0,1,1.6-1.6H3.523a.547.547,0,0,1,0,1.095H1.6a.505.505,0,0,0-.354.147.5.5,0,0,0-.147.354V7.752Zm18.828,1.1H1.095V19.422a.505.505,0,0,0,.147.354.5.5,0,0,0,.354.147H19.422a.505.505,0,0,0,.354-.147.5.5,0,0,0,.147-.354V8.848ZM8.626,3.171a.547.547,0,1,1,0-1.095H12.3a.547.547,0,0,1,0,1.095Z" transform="translate(0 0)" fill="#fff"/>
    </g>
  </g>
</svg>
