<svg xmlns="http://www.w3.org/2000/svg" width="20.275" height="21.62" viewBox="0 0 20.275 21.62">
  <g id="dashboard-svgrepo-com" transform="translate(-4.75 -3.249)">
    <path id="Path_44" data-name="Path 44" d="M11.425,10h-3.8A2.1,2.1,0,0,0,5.5,12.087v7.9A2.1,2.1,0,0,0,7.622,22.07h3.8a2.1,2.1,0,0,0,2.122-2.087v-7.9A2.1,2.1,0,0,0,11.425,10Z" transform="translate(0 2.047)" fill="none" stroke="#3b3f55" stroke-linecap="round" stroke-linejoin="round" stroke-width="1.5" fill-rule="evenodd"/>
    <path id="Path_45" data-name="Path 45" d="M11.425,4h-3.8A2.065,2.065,0,0,0,5.5,6v1.36a2.065,2.065,0,0,0,2.122,2h3.8a2.065,2.065,0,0,0,2.122-2V6A2.065,2.065,0,0,0,11.425,4Z" transform="translate(0 0)" fill="none" stroke="#3b3f55" stroke-linecap="round" stroke-linejoin="round" stroke-width="1.5" fill-rule="evenodd"/>
    <path id="Path_46" data-name="Path 46" d="M15.622,16.071h3.8a2.1,2.1,0,0,0,2.123-2.087v-7.9A2.1,2.1,0,0,0,19.425,4h-3.8A2.1,2.1,0,0,0,13.5,6.087v7.9a2.1,2.1,0,0,0,2.122,2.087Z" transform="translate(2.729 0)" fill="none" stroke="#3b3f55" stroke-linecap="round" stroke-linejoin="round" stroke-width="1.5" fill-rule="evenodd"/>
    <path id="Path_47" data-name="Path 47" d="M15.622,20.365h3.8a2.065,2.065,0,0,0,2.123-2V17a2.065,2.065,0,0,0-2.122-2h-3.8A2.065,2.065,0,0,0,13.5,17v1.359A2.065,2.065,0,0,0,15.622,20.365Z" transform="translate(2.729 3.752)" fill="none" stroke="#3b3f55" stroke-linecap="round" stroke-linejoin="round" stroke-width="1.5" fill-rule="evenodd"/>
  </g>
</svg>
