<svg xmlns="http://www.w3.org/2000/svg" width="67.027" height="75.675" viewBox="0 0 67.027 75.675">
  <g id="_x32_1_Forgot_Password" transform="translate(-25.801 -6.054)">
    <g id="Group_55882" data-name="Group 55882" transform="translate(25.801 6.054)">
      <path id="Path_58" data-name="Path 58" d="M125.514,40.9H119.44V28.169a10.832,10.832,0,0,0-21.664,0V40.9H91.7V28.169a16.906,16.906,0,0,1,33.812,0Z" transform="translate(-81.726 -10.474)" fill="#e0e0e0"/>
      <circle id="Ellipse_15" data-name="Ellipse 15" cx="23.429" cy="23.429" r="23.429" transform="matrix(0.16, -0.987, 0.987, 0.16, 0, 64.642)" fill="#fff"/>
      <path id="Path_67" data-name="Path 67" d="M17.88,0A17.88,17.88,0,1,1,0,17.88,17.88,17.88,0,0,1,17.88,0Z" transform="matrix(0.16, -0.987, 0.987, 0.16, 6.365, 60.053)" fill="#9ca2b3"/>
      <path id="Path_59" data-name="Path 59" d="M180.893,246.917a4.833,4.833,0,0,1-2.285,5.183v7.276a2.473,2.473,0,0,1-4.946,0V252.1a4.859,4.859,0,1,1,7.231-5.183Z" transform="translate(-149.252 -207.183)" fill="#fff"/>
      <path id="Path_60" data-name="Path 60" d="M283.32,304.643a16.059,16.059,0,1,1-16.062-16.062A16.06,16.06,0,0,1,283.32,304.643Z" transform="translate(-217.081 -245.812)" fill="#fff"/>
      <g id="Group_55881" data-name="Group 55881" transform="translate(2.669)">
        <path id="Path_61" data-name="Path 61" d="M67.647,6.054a17.717,17.717,0,0,0-17.7,17.7V34.82a24.2,24.2,0,0,0,17.7,40.721,23.782,23.782,0,0,0,5.732-.693.789.789,0,0,0-.38-1.53,22.205,22.205,0,0,1-5.352.647A22.639,22.639,0,1,1,89.425,45.116a.788.788,0,0,0,1.517-.431,24.015,24.015,0,0,0-5.606-9.867V23.751a17.713,17.713,0,0,0-17.689-17.7Zm-16.12,27.22V23.751a16.116,16.116,0,1,1,32.232,0V33.27a24.493,24.493,0,0,0-4.493-3.16V23.751a11.619,11.619,0,1,0-23.238,0v6.334A24.317,24.317,0,0,0,51.527,33.274ZM57.6,29.3V23.751a10.043,10.043,0,1,1,20.085,0v5.57A24.014,24.014,0,0,0,57.6,29.3Z" transform="translate(-43.431 -6.054)" fill="#030303"/>
        <path id="Path_62" data-name="Path 62" d="M115.04,195.271a.788.788,0,1,0,1.5-.477A18.667,18.667,0,1,0,98.757,219.13a19.184,19.184,0,0,0,3.848-.394.788.788,0,0,0-.316-1.544,17.621,17.621,0,0,1-3.531.362,17.09,17.09,0,1,1,16.283-22.282Z" transform="translate(-74.541 -155.193)" fill="#030303"/>
        <path id="Path_63" data-name="Path 63" d="M171.716,258.224a3.265,3.265,0,0,0,3.261-3.262v-6.846a5.649,5.649,0,1,0-6.522,0v6.846A3.265,3.265,0,0,0,171.716,258.224Zm-4.072-14.706a4.073,4.073,0,0,1,8.057-.858,4.026,4.026,0,0,1-1.909,4.346.789.789,0,0,0-.391.681v7.276a1.684,1.684,0,1,1-3.369,0v-7.276a.789.789,0,0,0-.392-.681A4.046,4.046,0,0,1,167.645,243.518Z" transform="translate(-147.503 -202.769)" fill="#030303"/>
        <path id="Path_64" data-name="Path 64" d="M262.84,317.067A16.847,16.847,0,1,0,246,300.225,16.866,16.866,0,0,0,262.84,317.067Zm0-32.117a15.27,15.27,0,1,1-15.267,15.274A15.291,15.291,0,0,1,262.84,284.951Z" transform="translate(-215.332 -241.393)" fill="#030303"/>
        <path id="Path_65" data-name="Path 65" d="M313.192,330.22a.788.788,0,0,0,.788-.788v-1.47a4.834,4.834,0,0,1,4.829-4.828h.777a4.829,4.829,0,1,1,0,9.657H319.2a.788.788,0,0,0-.788.788v4.839a.788.788,0,1,0,1.576,0v-4.063a6.405,6.405,0,0,0-.4-12.8h-.777a6.412,6.412,0,0,0-6.405,6.4v1.47A.788.788,0,0,0,313.192,330.22Z" transform="translate(-271.686 -273.796)" fill="#030303"/>
        <path id="Path_66" data-name="Path 66" d="M352.863,453.106a.788.788,0,0,0-.788.788v.643a.788.788,0,1,0,1.576,0v-.643A.788.788,0,0,0,352.863,453.106Z" transform="translate(-305.352 -385.43)" fill="#030303"/>
      </g>
    </g>
  </g>
</svg>
