<svg xmlns="http://www.w3.org/2000/svg" xmlns:xlink="http://www.w3.org/1999/xlink" width="235.993" height="88.367" viewBox="0 0 235.993 88.367">
  <defs>
    <clipPath id="clip-path">
      <path id="Path_6315" data-name="Path 6315" d="M227.9,128h31.5v32.941H227.9Zm0,0"/>
    </clipPath>
  </defs>
  <g id="logo_3" data-name="logo 3" transform="translate(-2503.007 -7553.406)">
    <g id="Group_1296" data-name="Group 1296" transform="translate(2433.52 7425.406)">
      <g id="Group_1295" data-name="Group 1295" transform="translate(66.363 199.304)">
        <g id="Group_1294" data-name="Group 1294">
          <path id="Path_6307" data-name="Path 6307" d="M19.891-34.969q8.25,0,11.8,5.969h.156v-5.109h8.094V-2.766q0,9.234-4.8,14.531t-14.469,5.3q-10.518,0-16.906-5.625L8.891,4.484A16.981,16.981,0,0,0,20.609,9.375q5.965,0,8.375-3.016t2.422-8.7v-2.2h-.141Q27.281.422,20.109.422A16.252,16.252,0,0,1,7.922-4.516a17.255,17.255,0,0,1-4.8-12.547A18.4,18.4,0,0,1,7.7-29.922,15.69,15.69,0,0,1,19.891-34.969ZM11.656-17.125a9.377,9.377,0,0,0,2.938,7.078,9.92,9.92,0,0,0,7.078,2.8,9.829,9.829,0,0,0,7.391-2.844,9.845,9.845,0,0,0,2.781-7.172,9.618,9.618,0,0,0-2.812-7.344,10.245,10.245,0,0,0-7.359-2.672,9.862,9.862,0,0,0-7.219,2.766A9.918,9.918,0,0,0,11.656-17.125Zm0,0" fill="#393e41"/>
        </g>
      </g>
    </g>
    <g id="Group_1299" data-name="Group 1299" transform="translate(2433.52 7425.406)">
      <g id="Group_1298" data-name="Group 1298" transform="translate(111.131 199.304)">
        <g id="Group_1297" data-name="Group 1297">
          <path id="Path_6308" data-name="Path 6308" d="M9.172-50.812a5.6,5.6,0,0,1,3.938,1.469A4.738,4.738,0,0,1,14.7-45.687,4.646,4.646,0,0,1,13.063-42a5.712,5.712,0,0,1-3.891,1.422,5.294,5.294,0,0,1-3.844-1.516,4.866,4.866,0,0,1-1.562-3.594,4.872,4.872,0,0,1,1.562-3.594A5.276,5.276,0,0,1,9.172-50.812Zm4.328,16.7V0H4.969V-34.109Zm0,0" fill="#393e41"/>
        </g>
      </g>
    </g>
    <g id="Group_1302" data-name="Group 1302" transform="translate(2433.52 7425.406)">
      <g id="Group_1301" data-name="Group 1301" transform="translate(129.607 199.304)">
        <g id="Group_1300" data-name="Group 1300">
          <path id="Path_6309" data-name="Path 6309" d="M20.672-54.578a24.1,24.1,0,0,1,5.344.5l-.578,7.25a14.781,14.781,0,0,0-3.547-.5,5.136,5.136,0,0,0-4.156,1.563q-1.312,1.564-1.312,5.188v6.469H24.3v7.25H16.422V0H7.891V-26.859H.859v-7.25H7.891v-5.328q0-8.027,2.906-11.578T20.672-54.578Zm0,0" fill="#393e41"/>
        </g>
      </g>
    </g>
    <g id="Group_1305" data-name="Group 1305" transform="translate(2433.52 7425.406)">
      <g id="Group_1304" data-name="Group 1304" transform="translate(154.62 199.304)">
        <g id="Group_1303" data-name="Group 1303">
          <path id="Path_6310" data-name="Path 6310" d="M16.422-43.984v9.875H25.8v7.25H16.422v15.141q0,5.332,4.75,5.328A7.762,7.762,0,0,0,25.8-7.469V-.281A16.243,16.243,0,0,1,19.047.859q-5.906,0-8.531-2.594T7.891-10.875V-26.859H.859v-7.25H7.891v-9.875Zm0,0" fill="#393e41"/>
        </g>
      </g>
    </g>
    <g id="Group_1308" data-name="Group 1308" transform="translate(2433.52 7425.406)">
      <g id="Group_1307" data-name="Group 1307" transform="translate(182.263 199.304)">
        <g id="Group_1306" data-name="Group 1306">
          <path id="Path_6311" data-name="Path 6311" d="M13.359-53.719v24.375H13.5A9.49,9.49,0,0,1,17.516-33.5a12.275,12.275,0,0,1,6-1.469q5.906,0,9.172,3.531,3.264,3.516,3.266,9.688V0H27.438V-17.687q0-9.592-6.266-9.594a7.189,7.189,0,0,0-5.828,2.375,9.375,9.375,0,0,0-1.984,6.219V0H4.828V-53.719Zm0,0" fill="#393e41"/>
        </g>
      </g>
    </g>
    <g id="Group_1311" data-name="Group 1311" transform="translate(2433.52 7425.406)">
      <g id="Group_1310" data-name="Group 1310" transform="translate(223.051 199.304)">
        <g id="Group_1309" data-name="Group 1309">
          <path id="Path_6312" data-name="Path 6312" d="M13.359-34.109v17.625q0,5.109,1.563,7.391a5.307,5.307,0,0,0,4.688,2.266,7.211,7.211,0,0,0,5.828-2.344,9.4,9.4,0,0,0,2-6.313V-34.109h8.516V0H27.859V-5.469h-.141Q24.731.859,17.266.859q-5.754,0-9.094-3.453T4.828-12.3V-34.109Zm0,0" fill="#393e41"/>
        </g>
      </g>
    </g>
    <g id="Group_1314" data-name="Group 1314" transform="translate(2433.52 7425.406)">
      <g id="Group_1313" data-name="Group 1313" transform="translate(263.84 199.304)">
        <g id="Group_1312" data-name="Group 1312">
          <path id="Path_6313" data-name="Path 6313" d="M13.359-53.719v23.938h.219q4.107-5.186,11.578-5.188a15.149,15.149,0,0,1,11.859,5.188,18.438,18.438,0,0,1,4.625,12.719q0,7.969-4.687,12.953A15.863,15.863,0,0,1,24.875.859q-8.109,0-11.8-5.969h-.141V0H4.828V-53.719Zm-.281,36.656a10.19,10.19,0,0,0,2.8,7.3,9.544,9.544,0,0,0,7.219,2.938,9.524,9.524,0,0,0,7.172-2.937,10.114,10.114,0,0,0,2.844-7.3,10.074,10.074,0,0,0-2.813-7.3,9.622,9.622,0,0,0-7.266-2.922,9.543,9.543,0,0,0-7.078,2.922A9.95,9.95,0,0,0,13.078-17.062Zm0,0" fill="#393e41"/>
        </g>
      </g>
    </g>
    <g id="Group_1315" data-name="Group 1315" transform="translate(2433.52 7425.406)" clip-path="url(#clip-path)">
      <path id="Path_6314" data-name="Path 6314" d="M257.445,135.527H254.48c.54-.961.176-3.6-.316-5.078-1.609-4.73-7.949.414-9.051,1.391-.472-.383-1.644-.2-2.207-.242a1.587,1.587,0,0,0-.836.238c-1.09-.965-7.437-6.117-9.047-1.391-.492,1.473-.859,4.121-.32,5.082h-2.965a1.713,1.713,0,0,0-.668.133,1.744,1.744,0,0,0-.949.945,1.793,1.793,0,0,0-.133.672v6.164a.564.564,0,0,0,.172.414.558.558,0,0,0,.41.172h1.145v15.317a1.712,1.712,0,0,0,.133.668,1.751,1.751,0,0,0,1.617,1.082h24.254a1.742,1.742,0,0,0,1.238-.512,1.755,1.755,0,0,0,.379-.57,1.713,1.713,0,0,0,.133-.668V144.027h1.144a.558.558,0,0,0,.41-.172.545.545,0,0,0,.172-.414v-6.164a1.736,1.736,0,0,0-.511-1.238,1.759,1.759,0,0,0-.571-.379A1.681,1.681,0,0,0,257.445,135.527Zm-10.793,0c1.5-1.382,5.129-2.187,6.887-2.433.121,1,.106,2.23-.644,2.433Zm-.586,7.332c-.043,0-4.906,0-4.949,0v-6.168s4.477,0,4.949,0Zm4.993-13.195c1.562-.391,2.082,1.024,2.277,2.281-1.508.219-5.3.922-7.438,2.653a9.507,9.507,0,0,0-.07-1.832A15.281,15.281,0,0,1,251.059,129.664Zm-8.153,3.1h1.371a.432.432,0,0,1,.321.132.438.438,0,0,1,.136.321v2.308h-2.285v-2.308a.439.439,0,0,1,.137-.321A.429.429,0,0,1,242.906,132.766Zm-8.761-2a1.568,1.568,0,0,1,.285-.559,1.605,1.605,0,0,1,1.7-.547,15.306,15.306,0,0,1,5.226,3.1,10.679,10.679,0,0,0-.07,1.832c-2.14-1.731-5.93-2.434-7.437-2.653C233.93,131.559,234.027,131.164,234.145,130.77Zm-.5,2.324c1.824.258,5.2,1.008,6.933,2.433h-6.289C233.543,135.324,233.527,134.09,233.645,133.094Zm-4.489,4.183a.562.562,0,0,1,.168-.414.577.577,0,0,1,.414-.172h10.211v6.168H229.156Zm1.727,22.067V144.027h9.844v15.9h-9.262a.574.574,0,0,1-.582-.582Zm11.012.582v-15.9h3.394v15.9Zm14.41-.582a.594.594,0,0,1-.172.414.567.567,0,0,1-.414.168h-9.262v-15.9H256.3Zm1.722-16.485c-.371,0-10.14,0-10.793,0v-6.168h10.211a.57.57,0,0,1,.414.172.558.558,0,0,1,.168.414Zm0,0" fill="#393e41"/>
    </g>
  </g>
</svg>
