<svg xmlns="http://www.w3.org/2000/svg" width="56" height="56" viewBox="0 0 56 56">
  <g id="media_plan" data-name="media plan" transform="translate(-270.667 -26.553)">
    <path id="Path_683" data-name="Path 683" d="M487,232.667A10.667,10.667,0,0,1,497.667,222h34.667A10.667,10.667,0,0,1,543,232.667v34.667A10.667,10.667,0,0,1,532.333,278H497.667A10.667,10.667,0,0,1,487,267.333Z" transform="translate(-216.333 -195.447)" fill="#f1ede1"/>
    <path id="calendar-day-svgrepo-com" d="M3,13.452H31.414M9.314,3V6.484M25.1,3V6.484M7.736,18.678H14.05v6.968H7.736Zm.316,15.678H26.362c1.768,0,2.652,0,3.328-.38a3.339,3.339,0,0,0,1.38-1.523c.344-.745.344-1.721.344-3.672V12.059c0-1.951,0-2.927-.344-3.672a3.339,3.339,0,0,0-1.38-1.523c-.675-.38-1.559-.38-3.328-.38H8.051c-1.768,0-2.652,0-3.328.38a3.339,3.339,0,0,0-1.38,1.523C3,9.132,3,10.107,3,12.059V28.782c0,1.951,0,2.927.344,3.672a3.339,3.339,0,0,0,1.38,1.523C5.4,34.357,6.283,34.357,8.051,34.357Z" transform="translate(281.46 35.874)" fill="none" stroke="#9b4431" stroke-linecap="round" stroke-linejoin="round" stroke-width="2.5"/>
  </g>
</svg>
