<svg xmlns="http://www.w3.org/2000/svg" width="56" height="56" viewBox="0 0 56 56">
  <g id="Group_60491" data-name="Group 60491" transform="translate(-1778.293 -111)">
    <path id="Path_89138" data-name="Path 89138" d="M1065,232.667A10.665,10.665,0,0,1,1075.667,222h34.667A10.665,10.665,0,0,1,1121,232.667v34.667A10.665,10.665,0,0,1,1110.333,278h-34.667A10.665,10.665,0,0,1,1065,267.333Z" transform="translate(713.293 -111)" fill="#ffeae9"/>
    <g id="form-svgrepo-com" transform="translate(1788.665 121.145)">
      <g id="projects-alt-svgrepo-com" transform="translate(4.333 4.561)">
        <path id="Path_78593" data-name="Path 78593" d="M26.045,3H6.545A3.545,3.545,0,0,0,3,6.545v19.5A3.545,3.545,0,0,0,6.545,29.59h19.5a3.545,3.545,0,0,0,3.545-3.545V6.545A3.545,3.545,0,0,0,26.045,3Z" transform="translate(-3 -3)" fill="none" stroke="#ff4d49" stroke-width="2"/>
        <path id="Path_78594" data-name="Path 78594" d="M14.386,14.863V6M7,17.818V6M21.772,20.772V6" transform="translate(-1.091 -1.568)" fill="none" stroke="#ff4d49" stroke-linecap="round" stroke-width="2"/>
      </g>
    </g>
  </g>
</svg>
