<svg id="Settings" xmlns="http://www.w3.org/2000/svg" width="29" height="29" viewBox="0 0 29 29">
  <rect id="remix-icons_line_map_car-line_Frame_Background_" data-name="remix-icons/line/map/car-line [Frame Background]" width="29" height="29" fill="none"/>
  <g id="setting-2-svgrepo-com" transform="translate(2.7 2.693)">
    <path id="Path_50" data-name="Path 50" d="M11.692,14.385A2.692,2.692,0,1,0,9,11.692,2.692,2.692,0,0,0,11.692,14.385Z" transform="translate(0.103 0.114)" fill="none" stroke="#3b3f55" stroke-linecap="round" stroke-linejoin="round" stroke-width="1.5"/>
    <path id="Path_51" data-name="Path 51" d="M2,12.669V10.945A1.867,1.867,0,0,1,3.861,9.084c1.773,0,2.5-1.254,1.606-2.792a1.86,1.86,0,0,1,.686-2.537l1.695-.97a1.635,1.635,0,0,1,2.233.588l.108.186c.882,1.538,2.331,1.538,3.223,0l.108-.186a1.635,1.635,0,0,1,2.233-.588l1.695.97a1.86,1.86,0,0,1,.686,2.537c-.891,1.538-.167,2.792,1.606,2.792A1.867,1.867,0,0,1,21.6,10.945v1.724a1.867,1.867,0,0,1-1.861,1.861c-1.773,0-2.5,1.254-1.606,2.792a1.858,1.858,0,0,1-.686,2.537l-1.695.97a1.635,1.635,0,0,1-2.233-.588l-.108-.186c-.882-1.538-2.331-1.538-3.223,0l-.108.186a1.635,1.635,0,0,1-2.233.588l-1.695-.97a1.86,1.86,0,0,1-.686-2.537c.891-1.538.167-2.792-1.606-2.792A1.867,1.867,0,0,1,2,12.669Z" fill="none" stroke="#3b3f55" stroke-linecap="round" stroke-linejoin="round" stroke-width="1.5"/>
  </g>
</svg>
