<svg xmlns="http://www.w3.org/2000/svg" width="56" height="56" viewBox="0 0 56 56">
  <g id="Group_60490" data-name="Group 60490" transform="translate(-1404 -111)">
    <path id="Path_88503" data-name="Path 88503" d="M1065,232.667A10.665,10.665,0,0,1,1075.667,222h34.667A10.665,10.665,0,0,1,1121,232.667v34.667A10.665,10.665,0,0,1,1110.333,278h-34.667A10.665,10.665,0,0,1,1065,267.333Z" transform="translate(339 -111)" fill="#edffd2"/>
    <g id="dollar-circle-svgrepo-com" transform="translate(1415.707 122.707)">
      <g id="Group_60147" data-name="Group 60147" transform="translate(11.536 7.717)">
        <path id="Path_89133" data-name="Path 89133" d="M8.672,17.331a3.248,3.248,0,0,0,3.173,3.33h3.588a2.842,2.842,0,0,0,2.773-2.9A2.5,2.5,0,0,0,16.319,15l-5.76-2a2.5,2.5,0,0,1-1.887-2.759,2.842,2.842,0,0,1,2.773-2.9h3.588a3.248,3.248,0,0,1,3.173,3.33" transform="translate(-8.672 -5.425)" fill="none" stroke="#8fc241" stroke-linecap="round" stroke-linejoin="round" stroke-width="2"/>
        <path id="Path_89134" data-name="Path 89134" d="M12,6V23.152" transform="translate(-7.243 -6)" fill="none" stroke="#8fc241" stroke-linecap="round" stroke-linejoin="round" stroke-width="2"/>
      </g>
      <path id="Path_89135" data-name="Path 89135" d="M16.293,30.587A14.293,14.293,0,1,0,2,16.293,14.294,14.294,0,0,0,16.293,30.587Z" fill="none" stroke="#8fc241" stroke-linecap="round" stroke-linejoin="round" stroke-width="2"/>
    </g>
  </g>
</svg>
